<svg height="137" viewBox="0 0 232 137" width="232" xmlns="http://www.w3.org/2000/svg"><g fill="none" fill-rule="evenodd" opacity=".3" transform=""><g fill="#f4f4f4"><ellipse cx="122.010363" cy="91.333333" rx="69.119171" ry="18.026316"/><ellipse cx="34.860104" cy="71.504386" rx="34.860104" ry="9.013158"/><ellipse cx="204.352332" cy="70.903509" rx="27.647668" ry="7.210526"/><ellipse cx="122.010363" cy="130.390351" rx="24.642487" ry="6.609649"/></g><g fill="#afc9e0" fill-rule="nonzero" transform="matrix(.99862953 -.05233596 .05233596 .99862953 3.224714 11.928385)"><path d="m32.0177071 18.7385735-2.2504078-3.8726652-7.4537318 12.8314574h14.905479z"/><path d="m38.5804043 31.2015871h-17.6262101l-.8533293 22.0245319 8.6622841-17.3529042h2.2484234l8.4162077 17.1947136z"/><path d="m37.8282839 57.7155271-7.9617603-16.2655943-9.8708364 19.7698157h19.5452087z"/><path d="m56.1450954 31.2015871h-14.0878705l1.1629091 30.0201638h16.1834884v-1.9703736z"/><path d="m4.88183708 27.6973657h13.40719162l6.7035958-11.5399016z"/><path d="m3.38950314 31.2015871-3.25654254 28.0477878v1.9703736h16.1834884l1.1629091-30.0201638z"/><path d="m34.5419741 16.1574641 6.7035958 11.5399016h13.4071915z"/><path d="m40.185854 1.41570543h-12.1549805v10.51266407h3.4728516v-3.50422133h8.6821289l-3.4728516-3.50422137z"/></g><g fill="#afc9e0" fill-rule="nonzero" transform="matrix(.99756405 .06975647 -.06975647 .99756405 182.574586 18.211058)"><path d="m25.6141657 15.150336-1.8003263-3.131091-5.9629854 10.3743698h11.9243832z"/><path d="m30.8643235 25.2268151h-14.1009681l-.6826634 17.8070683 6.9298272-14.0300076h1.7987387l6.7329662 13.9021089z"/><path d="m30.2626271 46.6636177-6.3694082-13.1509061-7.8966692 15.9841063h15.636167z"/><path d="m44.9160763 25.2268151h-11.2702964l.9303273 24.2716218h12.9467907v-1.593068z"/><path d="m3.90546966 22.3936148h10.72575324l5.3628767-9.3301332z"/><path d="m2.71160251 25.2268151-2.60523403 22.6769348v1.593068h12.94679072l.9303273-24.2716218z"/><path d="m27.6335793 13.0634816 5.3628766 9.3301332h10.7257533z"/><path d="m32.1486832 1.1446129h-9.7239844v8.49960077h2.7782812v-2.83320026h6.9457032l-2.7782813-2.83320025z"/></g><g fill="#8aa9c3" fill-rule="nonzero" transform="translate(57.727933)"><path d="m45.262263 74.1897061v17.6647622c0 1.421921 1.1471328 2.5749009 2.5630877 2.5749009 1.4159548 0 2.5630876-1.1529799 2.5630876-2.5749009v-16.050399l-8.1189025-8.6113713c-1.7732741-1.8813917-2.4729252-4.5091246-1.8708113-7.029042l1.9538369-8.1813048h-2.2835603l1.7128487-2.6107598c.3611255.1659068.7410449.2969109 1.1399959.3781909.4120352-1.222307 1.1107347-2.289704 2.0099803-3.1323858 1.178535-1.1032557 2.7008292-1.8156506 4.367764-1.9920759.2495525-.0262964.501484-.0432696.7579355-.0447039v-8.4277743c0-1.42216-1.1473707-2.5749009-2.562374-2.5749009s-2.562374 1.1536971-2.562374 2.5749009v3.1075236c-.3064095-.0554616-.6209076-.0894079-.9434941-.0894079-.3247275 0-.6406529.0337072-.9492036.089886v-7.3326465c0-1.42216-1.1471328-2.5749009-2.5630877-2.5749009-1.4150032 0-2.5623739 1.1527409-2.5623739 2.5749009v13.9823024l-1.2411016 1.8923885-1.2411016-1.8923885v-13.9823024c0-1.42216-1.1473707-2.5749009-2.5623739-2.5749009-1.4150033 0-2.562374 1.1527409-2.562374 2.5749009v7.3326465c-.3085507-.0554616-.6244761-.089886-.9492036-.089886-.654451 0-1.278927.1245495-1.8584408.342332v-11.9742096c0-1.4221601-1.1473707-2.574901-2.5630877-2.574901-1.4157169 0-2.5623739 1.15298-2.5623739 2.574901v13.9823024l-1.5732039 2.3987147v-11.9919c0-1.42216-1.1473707-2.5749009-2.562374-2.5749009s-2.562374 1.1527409-2.562374 2.5749009v3.1959753c-.5795138-.2173043-1.2032761-.342332-1.8584408-.342332-2.9365838 0-5.31720548 2.3920211-5.31720548 5.3429613s2.38038378 5.3432003 5.31720548 5.3432003c.654451 0 1.278927-.1245496 1.8584408-.3423321v1.5567501c0 .3131668.0632803.6203572.1724744.9100963h-2.0309152-4.57544686l-3.98261097-6.071612v-13.9813462c0-1.42216-1.14737069-2.5749009-2.56237397-2.5749009-1.41500329 0-2.56261187 1.1525018-2.56261187 2.5744228v14.754701c0 .5039356.1470195.9961574.42297845 1.4169007l6.91110634 10.5367498v11.2572727c-.0328296.1651896-.05090967.3356384-.05090967.5106293v21.4502562c0 1.42216 1.14713279 2.5749009 2.56237397 2.5749009s2.56308768-1.1527409 2.56308768-2.5749009v-17.6652403h1.2739312 1.2739311v17.6647622c0 1.42216 1.1473707 2.5749009 2.5630877 2.5749009s2.5630877-1.1527409 2.5630877-2.5749009v-21.4502562c0-.1747519-.0180801-.3452007-.0509097-.5106293v-11.2039626l2.8440424 4.3358071v11.2572727c-.0328296.1651895-.0509097.3356383-.0509097.5106293v21.4504952c0 1.421921 1.1471328 2.5749009 2.5630877 2.5749009 1.4152412 0 2.562374-1.1529799 2.562374-2.5749009v-17.6647622h1.2739311 1.2739312v17.6647622c0 1.421921 1.1471328 2.5749009 2.562374 2.5749009s2.562374-1.1529799 2.562374-2.5749009v-21.4504952c0-.1747519-.018318-.3452007-.0509097-.5106293v-11.2572727l.9675216-1.4754701.9672837 1.4754701v11.2572727c-.0328296.1651895-.0509097.3356383-.0509097.5106293v21.4504952c0 1.421921 1.1471328 2.5749009 2.562374 2.5749009s2.5630876-1.1529799 2.5630876-2.5749009v-17.6647622h1.2739312zm-15.9059406-22.207594h-4.5747332l-1.5658291-2.387718 1.5594059-2.3774384c.9244625 1.5777872 2.6270816 2.6399248 4.5809185 2.6399248.7883862 0 1.5332374-.1771424 2.2064821-.4857672l1.7128486 2.6107597h-3.9190928z"/><path d="m55.9000046 47.2951279c.2633505-.4233729.5459705-.8331195.8552348-1.2208727.2883296-.3614567.590457-.7102433.9151846-1.0379927.5699979-.5756533 1.1939982-1.0958449 1.8629608-1.5550766.7315291-.5017842 1.5184879-.9261133 2.3477921-1.2684453v-4.1294995c0-1.4219209-1.1473707-2.5749009-2.562374-2.5749009-.6311371 0-1.2018488.2385806-1.648141.6179667v-4.1981093c0-1.42216-1.1473707-2.5749009-2.5630877-2.5749009s-2.562374 1.1527409-2.562374 2.5749009v13.0604922c.5880781.199614 1.1350002.4702284 1.6407663.7951092.6504067.4171573 1.2254005.9282648 1.7140381 1.5113289z"/><path d="m54.2168929 79.8661542-2.0026055-2.1242753v15.3779269l2.0026055-2.4594355z"/><path d="m126.354703 26.8938611c-1.414766 0-2.562374 1.15298-2.562374 2.5749009v13.9823025l-3.982373 6.071612h-4.574496-2.030915c.109194-.2904563.172474-.5969295.172474-.9100963v-1.5567501c.579514.2173044 1.203514.342332 1.857728.342332 2.936583 0 5.316967-2.392021 5.316967-5.3429612s-2.380384-5.3432003-5.316967-5.3432003c-.654214 0-1.279165.1245496-1.857728.342332v-3.1959753c0-1.42216-1.147132-2.5749009-2.563325-2.5749009-1.414766 0-2.562136 1.1527409-2.562136 2.5749009v11.9926171l-1.574156-2.3987146v-13.9837368c0-1.42216-1.147132-2.5749009-2.562136-2.5749009-1.415241 0-2.563325 1.1529799-2.563325 2.5749009v11.9742096c-.579514-.2173043-1.203514-.342332-1.8584411-.342332-.3242517 0-.6401772.0337073-.9492036.089886v-7.3324074c0-1.42216-1.1471328-2.5749009-2.562374-2.5749009-1.4147654 0-2.5621361 1.1527409-2.5621361 2.5749009v13.9823024l-1.2415773 1.8923884-.1950744-.2969108v.5940608 8.7643689.5940607l.1950744-.2969108.9672837 1.4754701v11.2572727c-.0325917.1651895-.0506718.3356383-.0506718.5106293v21.4504952c0 1.421921 1.1471328 2.5749009 2.5628498 2.5749009 1.4152411 0 2.5623739-1.1529799 2.5623739-2.5749009v-17.6647622h1.2739312 1.2739313v17.6647622c0 1.421921 1.147133 2.5749009 2.562136 2.5749009 1.415241 0 2.563326-1.1529799 2.563326-2.5749009v-21.4507343c0-.1747519-.018081-.3452007-.051148-.5106293v-11.2572727l2.844042-4.335807v11.2042016c-.032591.1651896-.050671.3356384-.050671.5106293v21.4502562c0 1.42216 1.147132 2.5749009 2.562849 2.5749009s2.562374-1.1527409 2.562374-2.5749009v-17.6647622h1.273932 1.273693v17.6647622c0 1.42216 1.147608 2.5749009 2.563325 2.5749009s2.562374-1.1527409 2.562374-2.5749009v-21.4502562c0-.1747519-.01808-.3452007-.051147-.5106293v-11.2575117l6.911106-10.5367499c.275959-.4207432.423216-.912965.423216-1.4169007v-14.754701c.000714-1.4214429-1.146419-2.57514-2.562611-2.57514zm-22.084805 27.0186497h-4.5744949-3.9186171l1.7130866-2.6107597c.6722931.3093419 1.4180959.4857672 2.2064821.4857672 1.9538373 0 3.6571693-1.0621376 4.5809183-2.6399248l1.559406 2.3774384z"/><path d="m91.4118768 62.9453426c-.1432132.2954765-.2983212.5852156-.4805492.8625237l-10.0627478 15.3420681v15.9624254c.0525749.3643254.0794571.7317586.0794571 1.0951278v.1235933c.0925414.0102796.1834175.0286871.2788137.0286871 1.4152412 0 2.562374-1.15298 2.562374-2.5749009v-17.6647622h1.2739311 1.2739312v17.6647622c0 1.4219209 1.1471328 2.5749009 2.5628498 2.5749009s2.562374-1.15298 2.562374-2.5749009v-21.4504953c0-.1747519-.0180801-.3452007-.0511476-.5106293v-8.8783999z"/><path d="m76.5062873 33.8578792c0-1.42216-1.1471327-2.5749009-2.5623739-2.5749009-1.4147654 0-2.5628498 1.1527409-2.5628498 2.5749009v.3373118c-.4470059-.3803424-1.0170039-.6182058-1.648141-.6182058-1.4152412 0-2.562374 1.1536972-2.562374 2.574901v5.1235053c1.4813762.0533101 2.8989963.3578709 4.210515.8792578.3114054.1235933.6151981.2627255.9144709.4095075 1.625303.8003684 3.0624306 1.9260957 4.2105149 3.3095282v-12.0158058z"/><path d="m21.2155335 22.5604446c1.5287174-2.0159817 1.5972313-4.8514566.3332918-7.0694429-1.3671863-2.3987147-7.3421733-6.96760394-4.0423228-9.62545822 1.8315586-1.4754701-.761504-4.04606796-2.5740309-2.58661479-2.1489113 1.73078476-2.3535016 4.3876828-1.6057956 6.90401431.9965449 3.3525588 7.5431951 6.8411419 4.746256 10.5310125-1.4240433 1.8770886 1.7397309 3.6956079 3.1426015 1.8464891z"/><path d="m116.098546 6.9291155c2.335183-.23762432 1.549652-3.81179047-.760553-3.57703485-2.740558.2787424-4.34897 2.39632408-5.08264 4.91719774-.977513 3.35829621 2.629936 9.86308251-1.713563 11.43130741-2.210288.7979778-.539071 4.0525225 1.638388 3.2662586 2.37396-.8572644 3.965244-3.1998003 4.104651-5.7512735.149399-2.7596932-2.393944-9.85830133 1.813717-10.2864554z"/><path d="m44.8071686 22.1578698c.3908626 2.5251767 2.2064821 4.6977419 4.6532388 5.3130789 2.2450212.5646566 3.586039-2.8404951 1.3081882-3.4139968-4.4776718-1.1271616-1.5315722-7.9596974-2.835954-11.2039626-.9791785-2.4352907-2.7895643-4.38194539-5.544158-4.38553127-2.3220993-.00286871-2.7507873 3.63201837-.4032331 3.63488707 4.2276435.0066936 2.3996534 7.3249966 2.8219181 10.0555247z"/><path d="m89.2898476 9.04860965c1.0700546-2.39656315 1.2144573-5.05704707-.6908489-7.05629471-1.6057956-1.68608079-4.5126425.52090884-2.8892426 2.22467997 2.9244511 3.0695133-3.5953169 6.81197679-5.2639169 9.00940399-1.5425154 2.0319987-1.8446428 4.8521738-.5918844 7.0524698 1.149036 2.0181333 4.5223962.6327883 3.3569455-1.4161835-2.2916488-4.025748 4.6539524-6.6209689 6.0789473-9.81407555z"/><path d="m56.4319393 12.8816763c.9746584 2.3607044 3.2510818 4.0388962 5.7727756 4.0539569 2.3142489.0145826 2.8143055-3.6128936.4657997-3.6281934-4.6158892-.0294042-3.3638444-7.36874437-5.3964248-10.20971758-1.5258626-2.13312049-3.7432879-3.59329084-6.4198518-2.94066067-2.2573918.55007399-1.8170469 4.18352669.4643723 3.62747623 4.1110746-1.00069959 4.0592134 6.54423102 5.113329 9.09713852z"/><path d="m30.7189886 22.8850863c3.2860526 0 3.2860526-5.1206367 0-5.1206367-3.2860525 0-3.2860525 5.1206367 0 5.1206367z"/><path d="m6.33230624 15.5698911c3.28581462 0 3.28581462-5.1206367 0-5.1206367-3.28605253 0-3.28605253 5.1206367 0 5.1206367z"/><path d="m74.7606091 3.86557866c-3.2858146 0-3.2858146 5.12063668 0 5.12063668s3.2858146-5.12063668 0-5.12063668z"/><path d="m70.0286269 22.1535668c3.2862904 0 3.2862904-5.1206367 0-5.1206367-3.2858147 0-3.2858147 5.1206367 0 5.1206367z"/><path d="m98.0553505 14.4728508c3.2858145 0 3.2858145-5.12063664 0-5.12063664-3.2858146 0-3.2860525 5.12063664 0 5.12063664z"/><path d="m127.173777 14.8383715c-3.285814 0-3.285814 5.1206367 0 5.1206367 3.285815 0 3.286053-5.1206367 0-5.1206367z"/><path d="m78.6640008 75.8647902 9.2282099-14.0693198c.4260711-.6488052.6523099-1.4090118.6523099-2.1857134v-5.6962899-.6672128-2.7680603-8.0656004-10.8360513c0-.0972969-.0073748-.1931594-.0145116-.2887829-.1477332-2.0585342-1.8529692-3.683894-3.9400277-3.683894-2.183882 0-3.9531119 1.7790746-3.9531119 3.972916v4.1096575 7.8002453 5.916463 4.5098418 4.5048215l-1.9221968 2.929664-4.2216961 6.438089h-9.5308131-.8721255-5.3540793l-6.6075515-7.0094392 1.3103292-5.4856793.5140925-2.151528c.0014273-.0074108.002141-.0152998.0042821-.0227106.0240274-.1047077.0430591-.2091763.0582844-.3131668.0049958-.0518758.013798-.1023171.0197454-.1544319.0509096-.4556459.0211727-.9055543-.0787435-1.3349036-.0944446-.4075951-.2495525-.7965435-.4622312-1.1513066-.5278905-.8799749-1.3912138-1.5557938-2.4634094-1.8149334-.0254549-.0057374-.050196-.008128-.0756508-.0138654-.2861885-.0635896-.5714254-.098014-.8530938-.098014-.0152253 0-.029737.0038249-.0449623.0038249-1.7668509.02032-3.362417 1.2383239-3.7934839 3.0429778l-.1667649.6985294-.2576409 1.079589-1.8998347 7.9553943c-.3123569 1.3071728.0544781 2.6846289.9739448 3.6604663l5.4749303 5.8084085 1.8781861 1.992554 5.5905477 5.9312846v.0050202 13.5519969l-.5167094.6342226-4.3387407 5.3283787-8.2782926 10.1688381c-1.3241272 1.627751-1.1590276 4.009253.378492 5.436434l10.0734531 9.344564c.7600766.705223 1.7216508 1.053292 2.6803702 1.053292 1.0650588 0 2.1270249-.430066 2.9058953-1.278007 1.4813762-1.612929 1.3809842-4.125675-.223384-5.61501l-7.3364638-6.805522 6.6646465-8.183935h9.5346195v27.25484c0 2.193841 1.7706572 3.972916 3.9535877 3.972916 2.1834062 0 3.9535877-1.779075 3.9535877-3.972916v-33.0952822c0-.2698972-.0283096-.533818-.0794572-.7886545v-17.3654607z"/><path d="m57.8493215 56.2065178c.6049686 2.5443014 2.2573918 4.6781391 4.4829055 5.9049882.8095589.4460835 1.6947686.770247 2.6301742.9524097.5664296.1104451 1.1495118.1726004 1.7471057.1726004 3.5815189 0 6.6717833-2.0805276 8.1631511-5.0993605.3480413-.7045059.6161497-1.4556282.7745882-2.2488249.1175204-.5866499.1808007-1.1938589.1808007-1.8156505 0-.7162198-.0901625-1.40949-.2447947-2.078137-.4805492-2.0798105-1.6628905-3.8844643-3.287242-5.1529096-.2914221-.2275839-.597118-.4360431-.9144708-.6270509-.5523937-.3320525-1.1407096-.6093606-1.7609036-.8192541-.775064-.2627255-1.5969934-.4190698-2.4493735-.4623394-.1536806-.008128-.3056959-.0234278-.4615176-.0234278-1.3246029 0-2.580454.2904563-3.7161678.8010856-.3865804.1733175-.7562702.3753221-1.1124.599081-2.3090151 1.4534767-3.9264676 3.9098045-4.2345425 6.7672728-.0057095.0518757-.0064232.1037515-.0137979.1556272-.0226001.2464695-.0349707.4960467-.0378254.7475365 0 .0305995-.0045201.0607209-.0045201.0922766 0 .2961937.0168906.5880843.0444865.8771062.0404423.4295885.1168068.847463.214344 1.2569705z"/></g></g></svg>