<svg height="70" viewBox="0 0 58 70" width="58" xmlns="http://www.w3.org/2000/svg"><g fill="#f57577" fill-rule="evenodd" transform="translate(-.339376 .642499)"><path d="m43.13 69.11h-37.152c-2.758 0-5-2.244-5-5v-48.382c0-2.756 2.242-5 5-5h4.728c.552 0 1 .448 1 1s-.448 1-1 1h-4.728c-1.654 0-3 1.346-3 3v48.38c0 1.654 1.346 3 3 3h37.152c1.654 0 3-1.346 3-3v-4.73c0-.552.448-1 1-1s1 .448 1 1v4.73c0 2.758-2.242 5.002-5 5.002z" fill-rule="nonzero"/><g fill-rule="nonzero" transform="translate(11)"><path d="m42.152 58.38h-37.152c-2.758 0-5-2.244-5-5v-48.38c0-2.756 2.242-5 5-5h27.208c.552 0 1 .448 1 1s-.446 1-.998 1h-27.21c-1.654 0-3 1.346-3 3v48.38c0 1.654 1.346 3 3 3h37.152c1.654 0 3-1.346 3-3v-38.058c0-.552.448-1 1-1s1 .448 1 1v38.058c0 2.758-2.242 5-5 5z"/><path d="m46.13 16.322h-13.944c-.552 0-1-.448-1-1v-13.946c0-.552.448-1 1-1s1 .448 1 1v12.946h12.944c.552 0 1 .448 1 1s-.446 1-1 1z"/><path d="m46.13 16.322c-.26 0-.52-.102-.716-.302l-13.944-14.322c-.384-.396-.376-1.028.02-1.414.394-.382 1.032-.374 1.414.02l13.944 14.322c.384.396.376 1.028-.02 1.414-.194.188-.446.282-.698.282z"/></g><path d="m41.2143756 31.0098447h-5.9726562v5.9726562h-1.8046875v-5.9726562h-5.9726563v-1.8046875h5.9726563v-5.9726563h1.8046875v5.9726563h5.9726562z"/><text font-family="Roboto-Medium, Roboto" font-size="10" font-weight="400"><tspan x="25.457051" y="50.357501">KTP</tspan></text></g></svg>