<svg height="20" viewBox="0 0 19 20" width="19" xmlns="http://www.w3.org/2000/svg"><path d="m14.8417969 27.4965854.5009765.2780487c.3339861.1853668.5009766.42634.5009766.7229269v1.5014634c0 .2842291-.0989573.5221129-.296875.7136585-.1979177.1915457-.4329413.2873171-.7050781.2873171h-12.83984378c-.27213677 0-.50716046-.0957714-.70507812-.2873171-.19791766-.1915456-.296875-.4294294-.296875-.7136585v-1.5014634c0-.2718713.16699052-.5066657.50097656-.7043903l.50097656-.2965853 3.84082032-2.0760976c-.70508165-.5561003-1.19368354-1.2975563-1.46582032-2.2243902-.27213677-.9268339-.40820312-1.6621111-.40820312-2.2058537v-2.502439c0-.4201647.12988151-.8372337.38964844-1.2512195.25976692-.4139858.59993279-.7878032 1.02050781-1.1214634.42057502-.3336603.89989965-.6055275 1.43798828-.8156098.53808863-.2100824 1.0792616-.315122 1.62353516-.315122.55664341 0 1.1009088.1050396 1.63281251.315122.5319037.2100823 1.0050435.4819495 1.4194336.8156098.4143901.3336602.7483711.7074776 1.0019531 1.1214634s.3803711.8310548.3803711 1.2512195v2.502439c0 .6055315-.1206043 1.3593451-.3618164 2.2614634s-.7081671 1.6312167-1.4008789 2.1873171zm-.1855469 2.3170731v-1.0565853c-.0371096-.0370734-.0804034-.0679674-.1298828-.092683l-.1484375-.0741463c-.0123699 0-.027832-.0061788-.0463867-.0185366-.0185548-.0123578-.0402017-.0247154-.0649414-.0370732l-3.7294922-2.0575609c-.173178-.0988623-.3154292-.2317065-.4267578-.3985366-.11132872-.1668301-.17317706-.3491047-.18554691-.5468293-.02473971-.1977245.00309204-.3892673.08349611-.5746341.080404-.1853668.2010083-.3398368.3618164-.4634147.507164-.3954491.8535147-.9608093 1.0390625-1.6960975.1855478-.7352883.2783203-1.3377213.2783203-1.8073171v-2.502439c0-.4325225-.3247038-.9268265-.9741211-1.4829269-.6494173-.5561003-1.40705947-.8341463-2.27294921-.8341463-.84115004 0-1.5987922.278046-2.27294922.8341463-.67415702.5561004-1.01123047 1.0504044-1.01123047 1.4829269v2.502439c0 .4695958.11132701 1.0720288.33398438 1.8073171.22265736.7352882.58756256 1.3006484 1.09472656 1.6960975.14843824.1235779.26285767.2780479.34326172.4634147.08040404.1853668.1082358.3769096.08349609.5746341-.01236985.1977246-.07421819.3799992-.18554688.5468293-.11132868.1668301-.25357986.2934955-.42675781.38l-3.84082031 2.0946341c-.01236985 0-.02473952.0030894-.03710937.0092683-.01236986.0061789-.02473953.0154471-.03710938.0278049-.04947941.0123578-.1020505.037073-.15771484.0741463l-.13916016.092683v1.0565853zm4.3417969-5.2643902.5009765.2780488c.3339861.1853668.5009766.42634.5009766.7229268v1.4829268c0 .2842291-.0989573.5221129-.296875.7136586-.1979177.1915456-.4329413.287317-.7050781.287317h-1.9667969c-.0742191-.2595135-.1515295-.4881291-.2319336-.6858536-.080404-.1977246-.2071931-.3645522-.3803711-.5004878h2.3935547v-1.0565854c-.0371096-.0247156-.0804034-.0525202-.1298828-.0834146-.0494794-.0308945-.0989581-.0525203-.1484375-.0648781-.0123699-.0123578-.027832-.021626-.0463867-.0278048-.0185548-.0061789-.0402017-.0154471-.0649414-.0278049l-3.7851563-2.057561c-.1731779-.0988623-.3154291-.2317065-.4267578-.3985366s-.173177-.3491047-.1855469-.5468293c-.0247397-.1977245.0030921-.3892673.0834961-.5746341.0804041-.1853668.2010083-.3398368.3618164-.4634146.507164-.407807.862792-.979346 1.0668946-1.7146342.2041025-.7352882.3061523-1.3315424.3061523-1.7887805v-2.502439c0-.4448803-.333981-.9453631-1.0019531-1.5014634-.6679721-.5561004-1.4348915-.8341464-2.3007813-.8341464-.420575 0-.8256816.0679668-1.215332.2039025-.3896504.1359356-.7390935.3212996-1.0483398.5560975-.2350273-.0741467-.48242063-.1173983-.74218755-.129756-.25976692-.0123578-.51334512-.0247154-.76074219-.0370732.43294488-.5066692.98957993-.9330064 1.66992184-1.2790244.680342-.346018 1.3792282-.5190244 2.0966797-.5190244.5566434 0 1.1040012.108129 1.6420899.3243902.5380886.2162613 1.0174132.4912179 1.4379883.8248781.420575.3336602.7607408.710567 1.0205078 1.1307317.2597669.4201647.3896484.8403231.3896484 1.2604878v2.502439c0 .5931737-.1298815 1.3438979-.3896484 2.2521952-.259767.9082972-.7359992 1.6343062-1.428711 2.1780487z" fill="#3e98d2" fill-rule="evenodd" transform="translate(-1 -11.936798)"/></svg>