<svg height="13" viewBox="0 0 12 13" width="12" xmlns="http://www.w3.org/2000/svg"><g fill="#e86b32" transform=""><path d="m9.164 5.9255625c-.0648-.1454375-.2072-.2380625-.364-.2380625h-1.6v-5.28125c0-.22425-.1792-.40625-.4-.40625h-1.6c-.2208 0-.4.182-.4.40625v5.28125h-1.6c-.1568 0-.2992.0934375-.364.2380625-.0656.1454375-.04.31525.0632.4355l2.8 3.25c.076.0885625.1856.1389375.3008.1389375s.2248-.0511875.3008-.1389375l2.8-3.25c.104-.1194375.128-.2900625.0632-.4355z"/><path d="m10.4 8.9375v2.4375h-8.8v-2.4375h-1.6v3.25c0 .4493125.3584.8125.8.8125h10.4c.4424 0 .8-.3631875.8-.8125v-3.25z"/></g></svg>